<svg xmlns="http://www.w3.org/2000/svg" viewBox="0 0 64.02 94.8"><defs><style>.cls-1{fill:#bf945d;}.cls-2{fill:#fff;}</style></defs><g id="Layer_2" data-name="Layer 2"><g id="Слой_1" data-name="Слой 1"><path class="cls-1" d="M7.31,17.6a11.63,11.63,0,0,1,.4-1.8A11.63,11.63,0,0,0,7.31,17.6Z"/><path class="cls-1" d="M7.71,15.8a9.51,9.51,0,0,0-.4,1.8C2,19.4-.19,23.1,0,29.4V94.8H19V5.9C13.61,8.6,9,11.8,7.71,15.8Z"/><path class="cls-1" d="M56.31,15.8a9.51,9.51,0,0,1,.4,1.8c5.3,1.8,7.5,5.5,7.3,11.8V94.8H45V5.9C50.51,8.6,55,11.8,56.31,15.8Z"/><path class="cls-1" d="M32.21,0a84.47,84.47,0,0,0-9.5,4.1V94.8h18.6V4A91.81,91.81,0,0,0,32.21,0Z"/><polygon class="cls-2" points="13.11 83.3 7.31 67.3 5.81 67.3 4.61 67.3 4.21 67.3 4.21 86.1 5.81 86.1 5.81 70.3 11.51 86.1 13.11 86.1 13.11 86.1 14.71 86.1 14.71 67.3 13.11 67.3 13.11 83.3"/><path class="cls-2" d="M60.31,67.3h-1.6v4.2h0v8.7c0,1.6-.4,4.5-3,4.5a2.73,2.73,0,0,1-2.4-1,6.76,6.76,0,0,1-.8-3.6V78.9h0V67.3h-2.8V80.8a9.78,9.78,0,0,0,.2,2.6,4.35,4.35,0,0,0,1,1.6,7,7,0,0,0,1.8,1.2,8.51,8.51,0,0,0,2.2.4c1.8,0,3.2-.4,3.9-1.4A6.45,6.45,0,0,0,60,81.1V78.3h0v-11Z"/><path class="cls-2" d="M35,76.4c1.2-.6,2-2,2-4.3,0-4.5-3.9-4.7-5.9-4.7h-4.4V86.2h4.6c2.2,0,6.3,0,6.3-5.3C37.61,78.2,36.41,77,35,76.4Zm-5.3-7.7h1.6c1.4,0,3.2,0,3.2,3.4,0,3.8-1.8,3.6-3.2,3.6h-1.6Zm1.5,16.2h-1.6V77.2h1.6c1.6,0,3.4,0,3.4,3.8S32.81,84.9,31.21,84.9Z"/></g></g></svg>