<svg width="157" height="40" viewBox="0 0 157 40" fill="none" xmlns="http://www.w3.org/2000/svg">
<path fill-rule="evenodd" clip-rule="evenodd" d="M39.3739 20.1572C39.3739 27.7941 27.2594 40.0006 19.6797 40.0006C12.1 40.0006 -0.0146637 27.7941 -0.0146637 20.1572C-0.0146637 12.5203 12.1 0.313477 19.6797 0.313477C27.2594 0.313477 39.3739 12.5203 39.3739 20.1572ZM27.5573 20.1572C27.5573 23.212 22.7113 28.0945 19.6797 28.0945C16.6477 28.0945 11.8019 23.212 11.8019 20.1572C11.8019 17.1025 16.6479 12.2197 19.6797 12.2197C22.7113 12.2197 27.5573 17.1025 27.5573 20.1572Z" fill="#0065FF"/>
<path d="M60.8212 39.9981C68.1709 39.9981 72.7769 35.3571 74.1744 29.2556H66.1004C65.1172 31.3415 63.5644 32.906 60.8212 32.906C57.5088 32.906 55.0764 30.5073 55.0764 26.3874C55.0764 22.2678 57.5088 19.8687 60.8212 19.8687C63.5644 19.8687 65.1172 21.4332 66.1004 23.5194H74.1744C72.7769 17.4179 68.1709 12.7766 60.8212 12.7766C52.9541 12.7766 47.2093 18.826 47.2093 26.3874C47.2093 33.9491 52.9541 39.9981 60.8212 39.9981ZM76.9305 39.4246H84.7459V0.313209H76.9305V39.4246ZM93.2986 9.80409C96.0417 9.80409 98.2155 7.61389 98.2155 4.90212C98.2155 2.19056 96.0417 0.000366211 93.2986 0.000366211C90.6592 0.000366211 88.4334 2.19056 88.4334 4.90212C88.4334 7.61389 90.6592 9.80409 93.2986 9.80409ZM89.4169 39.4246H97.2323V13.3504H89.4169V39.4246ZM113.963 39.9981C121.312 39.9981 125.918 35.3571 127.316 29.2556H119.242C118.258 31.3415 116.706 32.906 113.963 32.906C110.65 32.906 108.218 30.5073 108.218 26.3874C108.218 22.2678 110.65 19.8687 113.963 19.8687C116.706 19.8687 118.258 21.4332 119.242 23.5194H127.316C125.918 17.4179 121.312 12.7766 113.963 12.7766C106.096 12.7766 100.351 18.826 100.351 26.3874C100.351 33.9491 106.096 39.9981 113.963 39.9981ZM147.514 39.4246H156.985L145.185 25.136L154.708 13.3504H145.443L137.887 22.6849V0.313209H130.072V39.4246H137.887V27.7954L147.514 39.4246Z" fill="white"/>
</svg>
