
<svg width="80" height="61" viewBox="0 0 80 61" fill="none" xmlns="http://www.w3.org/2000/svg">
    <g clip-path="url(#clip0_3619_895)">
        <path d="M0.161621 46.9602H9.0375C12.5186 46.9602 13.3857 48.4914 13.3857 49.8563V50.0371C13.3857 51.5683 12.0608 52.342 11.147 52.4559C12.5203 52.653 13.9907 53.5261 13.9907 55.484V55.6647C13.9907 57.3279 12.9943 59.2044 9.08777 59.2044H0.163418V46.9602H0.161621ZM3.52957 49.511V51.7002H8.54739C9.56172 51.7002 9.87231 51.2067 9.87231 50.63V50.5975C9.87231 50.0045 9.54556 49.511 8.54739 49.511H3.52957ZM3.52957 54.1028V56.5216H8.8095C10.0034 56.5216 10.3301 55.9124 10.3301 55.2869V55.2218C10.3301 54.6126 10.0034 54.1028 8.8095 54.1028H3.52957Z" fill="black"/>
        <path d="M21.6814 59.4212H21.0763C16.5971 59.4212 15.4858 56.9518 15.4858 54.7626V54.533C15.4858 52.4594 16.4984 49.8743 20.7981 49.8743H21.518C26.1606 49.8743 26.9936 52.4757 26.9936 55.0265V55.323H18.7389C18.8861 56.3769 19.5234 57.232 21.4857 57.232C23.333 57.232 23.5772 56.5233 23.6436 56.3588H26.9613C26.9613 57.1 26.3724 59.4212 21.6814 59.4212ZM18.7712 53.5947H23.5772C23.561 52.9204 23.2504 51.9659 21.2074 51.9659C19.5396 51.9659 18.9687 52.6402 18.7712 53.5947Z" fill="black"/>
        <path d="M34.5847 59.4212H33.9797C29.5004 59.4212 28.3892 56.9518 28.3892 54.7626V54.533C28.3892 52.4594 29.4017 49.8743 33.7014 49.8743H34.4213C39.0639 49.8743 39.8969 52.4757 39.8969 55.0265V55.323H31.6422C31.7894 56.3769 32.4267 57.232 34.389 57.232C36.2363 57.232 36.4805 56.5233 36.5469 56.3588H39.8646C39.8646 57.1 39.2758 59.4212 34.5847 59.4212ZM31.6745 53.5947H36.4805C36.4643 52.9204 36.1538 51.9659 34.1107 51.9659C32.4429 51.9659 31.872 52.6402 31.6745 53.5947Z" fill="black"/>
        <path d="M44.7226 59.208H41.5342V46.7468H44.7226V59.208Z" fill="black"/>
        <path d="M49.8727 49.0518H46.6196V46.7468H49.8727V49.0518ZM49.8404 59.208H46.6519V50.0714H49.8404V59.2062V59.208Z" fill="black"/>
        <path d="M51.6522 50.0713H54.8065V51.5194C55.1817 51.0258 56.424 49.8562 58.485 49.8562H58.6484C61.2965 49.8562 62.5065 51.6676 62.5065 53.2802V59.2061H59.318V54.4498C59.318 53.3959 58.713 52.3763 57.144 52.3763C55.5749 52.3763 54.8388 53.4465 54.8388 54.5655V59.2079H51.6504V50.0713H51.6522Z" fill="black"/>
        <path d="M70.4074 59.4212H69.8024C65.3232 59.4212 64.2119 56.9518 64.2119 54.7626V54.533C64.2119 52.4594 65.2244 49.8743 69.5241 49.8743H70.2441C74.8867 49.8743 75.7197 52.4757 75.7197 55.0265V55.323H67.465C67.6122 56.3769 68.2495 57.232 70.2117 57.232C72.0591 57.232 72.3033 56.5233 72.3697 56.3588H75.6874C75.6874 57.1 75.0985 59.4212 70.4074 59.4212ZM67.4973 53.5947H72.3033C72.2871 52.9204 71.9765 51.9659 69.9335 51.9659C68.2657 51.9659 67.6948 52.6402 67.4973 53.5947Z" fill="black"/>
        <path d="M76.9726 50.4682C75.1899 50.4682 74.7393 49.4884 74.7393 48.6586V48.523C74.7393 47.7493 75.1486 46.7351 76.9726 46.7351H77.2401C79.0587 46.7351 79.4465 47.7493 79.4465 48.5375V48.6586C79.4465 49.4884 78.8899 50.4682 77.2275 50.4682H76.9744H76.9726ZM77.1198 49.9855C78.6835 49.9855 78.8882 49.1774 78.8882 48.5519C78.8882 47.9626 78.6978 47.2178 77.1198 47.2178H77.1054C75.4843 47.2178 75.3155 47.9337 75.3155 48.5935C75.3155 49.2534 75.4843 49.9837 77.1054 49.9837H77.1198V49.9855ZM76.6979 49.5535H75.9726V47.6372H77.5507C78.1216 47.6372 78.2831 47.8505 78.2831 48.0982V48.1271C78.2831 48.3892 78.0785 48.5176 77.9097 48.5465C78.1844 48.6026 78.3119 48.7815 78.3119 48.9786V49.3257C78.3119 49.4323 78.319 49.4739 78.3549 49.5173V49.5535H77.6368C77.6081 49.5245 77.574 49.4902 77.574 49.3908V49.1919C77.574 49.0003 77.5183 48.9225 77.3352 48.9225H76.7015V49.5535H76.6979ZM77.3747 48.4399C77.5291 48.4399 77.5722 48.3621 77.5722 48.2627C77.5722 48.156 77.5291 48.0783 77.3747 48.0783H76.6979V48.4399H77.3747Z" fill="black"/>
        <g filter="url(#filter0_d_3619_895)">
            <path fill-rule="evenodd" clip-rule="evenodd" d="M26.9536 27.0797C26.9536 34.207 32.5531 39.9847 39.4604 39.9847C46.3677 39.9847 51.9672 34.207 51.9672 27.0797C51.9672 19.9523 46.3677 14.1746 39.4604 14.1746C32.5531 14.1746 26.9536 19.9523 26.9536 27.0797Z" fill="#FFC800"/>
            <path d="M26.7485 27.0797C26.7485 34.3141 32.4337 40.1897 39.4602 40.1897C46.4866 40.1897 52.1718 34.3141 52.1718 27.0797C52.1718 19.8453 46.4866 13.9697 39.4602 13.9697C32.4337 13.9697 26.7485 19.8453 26.7485 27.0797Z" stroke="white" stroke-opacity="0.3" stroke-width="0.409736"/>
        </g>
        <mask id="mask0_3619_895" style="mask-type:alpha" maskUnits="userSpaceOnUse" x="26" y="14" width="26" height="26">
            <path fill-rule="evenodd" clip-rule="evenodd" d="M26.9536 27.0794C26.9536 34.2067 32.5531 39.9846 39.4604 39.9846C46.3677 39.9846 51.9672 34.2067 51.9672 27.0794C51.9672 19.9521 46.3677 14.1743 39.4604 14.1743C32.5531 14.1743 26.9536 19.9521 26.9536 27.0794Z" fill="white"/>
        </mask>
        <g mask="url(#mask0_3619_895)">
            <path fill-rule="evenodd" clip-rule="evenodd" d="M26.9536 27.0799C26.9536 34.2072 32.5531 39.985 39.4604 39.985C46.3677 39.985 51.9672 34.2072 51.9672 27.0799C51.9672 19.9526 46.3677 14.1748 39.4604 14.1748C32.5531 14.1748 26.9536 19.9526 26.9536 27.0799Z" fill="#FFC800"/>
            <path fill-rule="evenodd" clip-rule="evenodd" d="M48.601 13.1418H30.091V18.3039H48.601V13.1418ZM30.091 41.0168H48.601V35.8548H30.091V41.0168ZM25.5879 30.4351H53.3529V23.7244H25.5879V30.4351Z" fill="url(#paint0_linear_3619_895)"/>
        </g>
    </g>
    <defs>
        <filter id="filter0_d_3619_895" x="10.154" y="0.653342" width="58.6119" height="59.4085" filterUnits="userSpaceOnUse" color-interpolation-filters="sRGB">
            <feFlood flood-opacity="0" result="BackgroundImageFix"/>
            <feColorMatrix in="SourceAlpha" type="matrix" values="0 0 0 0 0 0 0 0 0 0 0 0 0 0 0 0 0 0 127 0" result="hardAlpha"/>
            <feOffset dy="3.27789"/>
            <feGaussianBlur stdDeviation="8.19472"/>
            <feComposite in2="hardAlpha" operator="out"/>
            <feColorMatrix type="matrix" values="0 0 0 0 1 0 0 0 0 1 0 0 0 0 1 0 0 0 0.12 0"/>
            <feBlend mode="normal" in2="BackgroundImageFix" result="effect1_dropShadow_3619_895"/>
            <feBlend mode="normal" in="SourceGraphic" in2="effect1_dropShadow_3619_895" result="shape"/>
        </filter>
        <linearGradient id="paint0_linear_3619_895" x1="26.9168" y1="26.6523" x2="52.0416" y2="26.6523" gradientUnits="userSpaceOnUse">
            <stop stop-color="#2B2B2B"/>
            <stop offset="0.152836" stop-color="#131313"/>
            <stop offset="0.745954" stop-color="#131313"/>
            <stop offset="1" stop-color="#1B1B1B"/>
        </linearGradient>
        <clipPath id="clip0_3619_895">
            <rect width="80" height="61" fill="white"/>
        </clipPath>
    </defs>
</svg>
